<svg width="28" height="25" viewBox="0 0 28 25" fill="none" xmlns="http://www.w3.org/2000/svg">
<g clip-path="url(#clip0_98_1918)">
<path d="M28 10.5469V11.3281C28 11.9754 27.4777 12.5 26.8333 12.5H26.4444L25.1751 21.4252C25.0109 22.5798 24.0264 23.4375 22.8652 23.4375H5.13479C3.97362 23.4375 2.98915 22.5798 2.82489 21.4252L1.55556 12.5H1.16667C0.522326 12.5 0 11.9754 0 11.3281V10.5469C0 9.89967 0.522326 9.37502 1.16667 9.37502H4.44019L9.63088 2.20602C10.1362 1.50817 11.109 1.35382 11.8038 1.86139C12.4986 2.36896 12.6523 3.34616 12.1469 4.04406L8.28708 9.37502H19.7129L15.8531 4.04401C15.3477 3.34616 15.5014 2.36891 16.1962 1.86134C16.8909 1.35378 17.8639 1.50807 18.3692 2.20597L23.5598 9.37502H26.8333C27.4777 9.37502 28 9.89967 28 10.5469ZM15.1667 19.1406V13.6719C15.1667 13.0247 14.6443 12.5 14 12.5C13.3557 12.5 12.8333 13.0247 12.8333 13.6719V19.1406C12.8333 19.7879 13.3557 20.3125 14 20.3125C14.6443 20.3125 15.1667 19.7879 15.1667 19.1406ZM20.6111 19.1406V13.6719C20.6111 13.0247 20.0888 12.5 19.4444 12.5C18.8001 12.5 18.2778 13.0247 18.2778 13.6719V19.1406C18.2778 19.7879 18.8001 20.3125 19.4444 20.3125C20.0888 20.3125 20.6111 19.7879 20.6111 19.1406ZM9.72222 19.1406V13.6719C9.72222 13.0247 9.1999 12.5 8.55556 12.5C7.91122 12.5 7.38889 13.0247 7.38889 13.6719V19.1406C7.38889 19.7879 7.91122 20.3125 8.55556 20.3125C9.1999 20.3125 9.72222 19.7879 9.72222 19.1406Z" fill="#32343E"/>
</g>
<defs>
<clipPath id="clip0_98_1918">
<rect width="28" height="25" fill="white"/>
</clipPath>
</defs>
</svg>
