<svg width="28" height="28" viewBox="0 0 28 28" fill="none" xmlns="http://www.w3.org/2000/svg">
<path d="M8.16667 10.5001V8.16675H24.5V10.5001H8.16667ZM8.16667 15.1667V12.8334H24.5V15.1667H8.16667ZM8.16667 19.8334V17.5001H24.5V19.8334H8.16667ZM4.66667 10.5001C4.33611 10.5001 4.05903 10.3883 3.83542 10.1647C3.61181 9.94105 3.5 9.66397 3.5 9.33341C3.5 9.00286 3.61181 8.72578 3.83542 8.50216C4.05903 8.27855 4.33611 8.16675 4.66667 8.16675C4.99722 8.16675 5.27431 8.27855 5.49792 8.50216C5.72153 8.72578 5.83333 9.00286 5.83333 9.33341C5.83333 9.66397 5.72153 9.94105 5.49792 10.1647C5.27431 10.3883 4.99722 10.5001 4.66667 10.5001ZM4.66667 15.1667C4.33611 15.1667 4.05903 15.0549 3.83542 14.8313C3.61181 14.6077 3.5 14.3306 3.5 14.0001C3.5 13.6695 3.61181 13.3924 3.83542 13.1688C4.05903 12.9452 4.33611 12.8334 4.66667 12.8334C4.99722 12.8334 5.27431 12.9452 5.49792 13.1688C5.72153 13.3924 5.83333 13.6695 5.83333 14.0001C5.83333 14.3306 5.72153 14.6077 5.49792 14.8313C5.27431 15.0549 4.99722 15.1667 4.66667 15.1667ZM4.66667 19.8334C4.33611 19.8334 4.05903 19.7216 3.83542 19.498C3.61181 19.2744 3.5 18.9973 3.5 18.6667C3.5 18.3362 3.61181 18.0591 3.83542 17.8355C4.05903 17.6119 4.33611 17.5001 4.66667 17.5001C4.99722 17.5001 5.27431 17.6119 5.49792 17.8355C5.72153 18.0591 5.83333 18.3362 5.83333 18.6667C5.83333 18.9973 5.72153 19.2744 5.49792 19.498C5.27431 19.7216 4.99722 19.8334 4.66667 19.8334Z" fill="#32343E"/>
</svg>
