<svg width="24" height="24" viewBox="0 0 24 24" fill="none" xmlns="http://www.w3.org/2000/svg">
<path fill-rule="evenodd" clip-rule="evenodd" d="M4 4C2.89543 4 2 4.89543 2 6V16C2 17.1046 2.89543 18 4 18H6V21C6 21.4 6.24 21.77 6.62 21.92C6.99 22.08 7.42 21.99 7.71 21.71L11.41 18H20C21.1046 18 22 17.1046 22 16V6C22 4.89543 21.1046 4 20 4H4ZM7 9.5C7 8.94772 7.44772 8.5 8 8.5H16C16.5523 8.5 17 8.94772 17 9.5C17 10.0523 16.5523 10.5 16 10.5H8C7.44772 10.5 7 10.0523 7 9.5ZM8 12C7.44772 12 7 12.4477 7 13C7 13.5523 7.44772 14 8 14H13C13.5523 14 14 13.5523 14 13C14 12.4477 13.5523 12 13 12H8Z" fill="#6288D5"/>
</svg>
