<svg width="29" height="27" viewBox="0 0 29 27" fill="none" xmlns="http://www.w3.org/2000/svg">
<path d="M5 21.0833V10.5833C5 10.2139 5.08283 9.86389 5.2485 9.53333C5.41417 9.20278 5.64244 8.93056 5.93333 8.71667L12.9333 3.46667C13.3417 3.15556 13.8083 3 14.3333 3C14.8583 3 15.325 3.15556 15.7333 3.46667L22.7333 8.71667C23.025 8.93056 23.2537 9.20278 23.4193 9.53333C23.585 9.86389 23.6674 10.2139 23.6667 10.5833V21.0833C23.6667 21.725 23.438 22.2745 22.9807 22.7318C22.5233 23.1892 21.9742 23.4174 21.3333 23.4167H17.8333C17.5028 23.4167 17.2259 23.3047 17.0027 23.0807C16.7794 22.8567 16.6674 22.5798 16.6667 22.25V16.4167C16.6667 16.0861 16.5547 15.8092 16.3307 15.586C16.1067 15.3628 15.8298 15.2508 15.5 15.25H13.1667C12.8361 15.25 12.5592 15.362 12.336 15.586C12.1128 15.81 12.0008 16.0869 12 16.4167V22.25C12 22.5806 11.888 22.8578 11.664 23.0818C11.44 23.3058 11.1631 23.4174 10.8333 23.4167H7.33333C6.69167 23.4167 6.14256 23.1884 5.686 22.7318C5.22944 22.2753 5.00078 21.7258 5 21.0833Z" fill="#32343E"/>
</svg>
